<svg width="36" height="26" viewBox="0 0 36 26" fill="none" xmlns="http://www.w3.org/2000/svg">
<path d="M6.99207 2.73599H6.98407H6.99207ZM35.019 12.536V20.95H33.61V22.321H32.239V23.6909H29.4191V25.127H25.21V23.714H23.85V22.3239H26.55V20.953H27.983V19.5399H25.239V20.9489H19.6611V22.299H16.834V20.976H11.1981V19.545H8.48901V20.925H9.81104V22.296H11.171V23.696H9.83002V25.124H5.61902V23.7119H2.80103V22.3419H1.43005V20.971H-0.000976562V12.571H1.39905V8.38498H2.78406V5.55795H4.22803V4.18698H5.58801V2.73599H6.98102V4.14694H9.80902V2.73599C10.294 2.73599 10.7691 2.72195 11.2501 2.72195H24.868C24.979 2.72195 25.091 2.73099 25.201 2.73599V4.14694H28.0291V2.73599H29.394V4.15897H30.765V5.53598H32.2191V8.35397H33.5891V12.544L35.019 12.536ZM15.3331 12.554H13.989V11.145H11.189V12.5789H9.84406V15.3H11.204V16.721H14.004V15.275H15.337L15.3331 12.554ZM26.54 12.562H25.1851V11.145H22.3851V12.5869H21.0521V15.308H22.402V16.736H25.21V15.286H26.54V12.562ZM12.619 0.0119629H9.81903V1.35995H12.619V0.0119629ZM9.81104 1.36795V1.35995H9.80103H9.80804L9.81104 1.36795ZM25.202 0.000976562H22.402V1.36099H25.202V0.000976562ZM6.99207 1.36697V2.73099H9.80402V1.366L6.99207 1.36697ZM6.99207 2.73795V2.73099H6.98407L6.99207 2.73795ZM9.81207 2.73099H9.80402V2.73795L9.81207 2.73099ZM28.0211 2.73898H28.0291V2.73599H28.019V2.74295L28.0211 2.73898ZM25.202 1.36899H25.2081V1.36197L25.202 1.36899ZM25.2081 2.73996H25.201H25.2081ZM28.02 1.36899H25.2081V2.73599H28.019L28.02 1.36899Z" fill="white"/>
</svg>
