<svg width="32" height="30" viewBox="0 0 32 30" fill="none" xmlns="http://www.w3.org/2000/svg">
<path opacity="0.955" fill-rule="evenodd" clip-rule="evenodd" d="M18.373 10.677H20.767V15.649H18.373V15.797H18.281V18.06H13.309V15.797H13.216V15.649H10.823V10.677H13.216V10.64H13.309V8.19104H18.281V10.64H18.373V10.677ZM31.589 10.557V21.113H29.01V26.351H26.351V29.008H21.032V23.77H10.556V29.008H5.23798V26.349H2.57898V21.111H0V10.556H2.57898V5.23804H5.23798V2.659H10.476V0H21.113V2.659H26.351V5.23804H29.01V10.557H31.589ZM28.93 10.638H26.27V5.31903H21.032V2.73999H10.557V5.31903H5.31903V10.632H2.66003V21.032H5.32001V26.27H7.901V23.691H10.477V21.032H21.114V23.692H23.694V26.276H26.272V21.038H28.932L28.93 10.638Z" fill="white"/>
</svg>
