<svg width="32" height="32" viewBox="0 0 32 32" fill="none" xmlns="http://www.w3.org/2000/svg">
<path opacity="0.943" fill-rule="evenodd" clip-rule="evenodd" d="M31.834 11.584V20.25H29.106V26.086H26.461V31.834H23.65V26H26.378V20.161H29.023V11.672H26.378V5.836H23.65V0H26.461V5.74802H29.106V11.584H31.834ZM13.475 2.728H16.286V29.105H13.475V26.234H10.83V23.273H8.099V20.312H-0.000976562V11.52H8.099V8.55902H10.829V5.59802H13.474L13.475 2.728ZM13.475 8.64902H10.912C10.9388 9.6218 10.9112 10.5953 10.829 11.565C9.94771 11.6103 9.06602 11.6253 8.18402 11.61V14.481H2.81104V17.352H8.18402V20.22C9.08069 20.1909 9.97832 20.221 10.871 20.31C10.9117 21.2673 10.9253 22.2243 10.912 23.181H13.475V8.64902ZM26.001 14.511H23.273V9.138H20.462V14.593H23.19V17.238H20.462V22.695H23.273V17.32H25.999L26.001 14.511Z" fill="white"/>
</svg>
