<svg width="36" height="36" viewBox="0 0 36 36" fill="none" xmlns="http://www.w3.org/2000/svg">
<g opacity="0.939">
<path fill-rule="evenodd" clip-rule="evenodd" d="M25.773 1.224H28.942V7.282H31.924V13.433H35V22.567H31.924V25.643H28.942V28.624H31.924V31.606H35V34.775H31.831V31.699H25.773V28.717C24.7783 28.7323 23.7843 28.7167 22.791 28.67C22.6989 27.6631 22.6679 26.6516 22.698 25.641H19.809V31.699H16.64V28.717H13.657V25.643H10.582V22.567H1.448V13.433H7.506V10.451H4.52399V7.375H1.448V4.3H4.617V7.282H10.675V10.358H13.657V7.282H16.639V4.3H19.808V13.524H16.733V16.413H19.809V19.489H22.791V22.474H25.867V25.55H28.848V22.474H31.83V13.524H28.848V7.375H25.773V1.224ZM13.748 10.451H16.637V13.433H13.748V10.451ZM7.599 13.524H10.581V16.506H13.563C13.5477 17.5007 13.5633 18.4947 13.61 19.488C14.6169 19.5801 15.6284 19.6111 16.639 19.581V25.546H13.748C13.7633 24.5513 13.7477 23.5573 13.701 22.564C12.6941 22.4719 11.6826 22.4409 10.672 22.471V19.491H4.617V16.509H7.599V13.524Z" fill="white"/>
<path fill-rule="evenodd" clip-rule="evenodd" d="M23.014 10.583H25.976V16.247H28.851V19.209H25.889V16.334H23.014V10.583Z" fill="white"/>
</g>
</svg>
