<svg width="34" height="28" viewBox="0 0 34 28" fill="none" xmlns="http://www.w3.org/2000/svg">
<path d="M32.084 6.62903V8.49103H30.231V17.935H28.361V21.735H24.5681V23.607H20.768V25.507H18.898V27.368H1.86401V25.585H0V19.908H1.78601V21.7271H3.68604V23.568H5.58606V21.783H7.45502V19.883H9.341V18.018H7.53101V16.118H5.66101V14.218H3.76105V12.335H1.86102V8.53503H0.0210571V6.67102H7.48004V8.45502H9.38V10.355H11.249V12.219H15.049V4.76202H16.949V2.862H18.8181V0.998047H26.395V2.78101H28.295V4.68103H30.165V6.625L32.084 6.62903ZM32.084 8.51801H32.11V8.492H32.084V8.51801ZM33.924 10.337V8.51801H32.11V10.335L33.924 10.337ZM33.932 4.79401H32.1121V6.60803H33.932V4.79401ZM32.1121 6.63403V6.60803H32.088V6.633H32.11L32.1121 6.63403Z" fill="white"/>
</svg>
