<?xml version="1.0" standalone="no"?>
<!DOCTYPE svg PUBLIC "-//W3C//DTD SVG 20010904//EN"
 "http://www.w3.org/TR/2001/REC-SVG-20010904/DTD/svg10.dtd">
<svg version="1.0" xmlns="http://www.w3.org/2000/svg"
 width="376.000000pt" height="376.000000pt" viewBox="0 0 376.000000 376.000000"
 preserveAspectRatio="xMidYMid meet">
<metadata>
Created by potrace 1.14, written by Peter Selinger 2001-2017
</metadata>
<g transform="translate(0.000000,376.000000) scale(0.100000,-0.100000)"
fill="#000000" stroke="none">
<path d="M0 1880 l0 -1880 1880 0 1880 0 0 1880 0 1880 -1880 0 -1880 0 0
-1880z m1180 65 l0 -545 -135 0 -135 0 0 545 0 545 135 0 135 0 0 -545z m550
0 l0 -545 -135 0 -135 0 0 545 0 545 135 0 135 0 0 -545z m1100 415 l0 -130
-270 0 -270 0 0 130 0 130 270 0 270 0 0 -130z m-550 -275 l0 -135 -135 0
-135 0 0 135 0 135 135 0 135 0 0 -135z m280 -280 l0 -135 135 0 135 0 0 -135
0 -135 -135 0 -135 0 0 135 0 135 -135 0 -135 0 0 135 0 135 135 0 135 0 0
-135z m-1100 -550 l0 -135 -135 0 -135 0 0 135 0 135 135 0 135 0 0 -135z
m1100 0 l0 -135 -275 0 -275 0 0 135 0 135 275 0 275 0 0 -135z"/>
</g>
</svg>
